<?xml version="1.0" encoding="utf-8"?>
<!-- Generator: Adobe Illustrator 25.2.1, SVG Export Plug-In . SVG Version: 6.00 Build 0)  -->
<svg version="1.1" id="Layer_1" xmlns="http://www.w3.org/2000/svg" xmlns:xlink="http://www.w3.org/1999/xlink" x="0px" y="0px"
	 viewBox="0 0 1200 302" style="enable-background:new 0 0 1200 302;" xml:space="preserve">
<style type="text/css">
	.st0{fill:#020203;}
	.st1{fill:#E30613;}
	.st2{fill-rule:evenodd;clip-rule:evenodd;fill:#020203;}
</style>
<g>
	<path class="st0" d="M805.1,145.8L805.1,145.8c3.3,0,5.8,0.2,7.4,0.5c1.6,0.3,2.9,0.8,3.7,1.6c1.1,0.9,1.8,2.1,2,3.6
		c0.2,1.5,0,3.4-0.7,5.8l-2.5,8.5c-0.7,2.4-1.6,4.4-2.6,5.8c-1.1,1.5-2.4,2.7-4.1,3.6c-1.3,0.7-2.9,1.3-4.6,1.6
		c-1.8,0.3-4.4,0.5-7.7,0.5h-25.7l9.1-31.5L805.1,145.8L805.1,145.8z M806.8,149.3h-24.1l-7.1,24.5h24.1c3.2,0,5.6-0.6,7.2-1.7
		c1.6-1.1,2.8-3.1,3.6-5.9l2.7-9.2c0.9-3,0.8-5,0-6.1C812.3,149.9,810.2,149.3,806.8,149.3z"/>
	<path class="st0" d="M830.1,163.8L830.1,163.8h22.4l0.2-0.5c0.6-2,0.4-3.4-0.5-4.1c-0.9-0.7-3-1.1-6.2-1.1h-6c-3,0-5.3,0.4-6.8,1.3
		C831.8,160.2,830.7,161.7,830.1,163.8 M847,154.8c4.5,0,7.5,0.8,8.8,2.3c1.3,1.6,1.4,4.3,0.3,8.2c-0.1,0.5-0.2,0.8-0.3,1.1
		s-0.2,0.5-0.2,0.7l-26.3,0l-0.4,1.2c-0.7,2.4-0.5,4,0.4,4.9c1,0.9,3,1.4,6,1.4h6.3c2.7,0,4.7-0.3,6.2-0.9c1.4-0.6,2.4-1.6,2.7-2.8
		l0.1-0.2h4l-0.2,0.6c-0.6,2.1-2,3.8-4.2,4.9c-2.2,1.1-5.1,1.7-8.6,1.7h-7.2c-4.3,0-7.2-0.7-8.7-2.2c-1.4-1.5-1.7-3.9-0.7-7.4l1-3.5
		c1-3.5,2.7-6,5-7.5c2.3-1.5,5.6-2.2,10-2.2L847,154.8L847,154.8z"/>
	<path class="st0" d="M876.3,167.5c-4.4,0-7.1-0.4-8.1-1.3c-1.1-0.8-1.2-2.5-0.5-5c0.7-2.4,1.9-4,3.8-5s4.7-1.4,8.5-1.4h6.8
		c3.8,0,6.5,0.4,7.9,1.3c1.5,0.9,2,2.2,1.4,4.1l-0.4,1.5h-3.6l0.3-0.9c0.3-1-0.1-1.7-1.1-2.1c-1-0.4-3.3-0.6-6.8-0.6h-3.8
		c-3.7,0-6.1,0.2-7.2,0.6c-1,0.4-1.7,1.3-2.1,2.5c-0.4,1.3-0.2,2.2,0.6,2.6c0.8,0.4,3.1,0.7,6.8,0.7l6.6,0c2.9,0,4.9,0.1,6,0.4
		c1.1,0.3,1.8,0.7,2.3,1.3c0.4,0.6,0.7,1.2,0.7,1.9c0,0.7-0.2,2-0.7,3.8c-0.6,2.1-1.8,3.7-3.6,4.5c-1.8,0.9-4.7,1.3-8.8,1.3h-9.7
		c-3.2,0-5.3-0.6-6.2-1.8c-1-1.2-1-3.3-0.2-6.2h3.5l-0.1,0.4c-0.5,1.7-0.5,2.8,0.1,3.4c0.6,0.6,2.1,0.9,4.8,0.9h10.8
		c2.1,0,3.5-0.2,4.2-0.7c0.7-0.4,1.3-1.4,1.7-3c0.4-1.3,0.3-2.1-0.3-2.6c-0.6-0.5-1.8-0.7-3.6-0.7L876.3,167.5L876.3,167.5z"/>
	<path class="st0" d="M921.4,177.7L921.4,177.7H915c-4.1,0-6.9-0.8-8.2-2.3c-1.3-1.5-1.5-4-0.5-7.6l1-3.5c1-3.4,2.6-5.9,4.8-7.3
		c2.2-1.5,5.4-2.2,9.5-2.2h7.4c1.8,0,3.2,0.3,4.3,0.8c1.1,0.5,1.9,1.3,2.4,2.4l3.5-12h3.7l-9.1,31.5h-3.3l1.1-3.6
		c-1.1,1.4-2.3,2.4-3.8,3C926.2,177.4,924.1,177.7,921.4,177.7 M922.3,174.4c3.5,0,6-0.5,7.4-1.4c1.4-0.9,2.5-2.8,3.3-5.5l0.8-2.6
		c0.8-2.7,0.7-4.4-0.2-5.4c-0.9-0.9-3.1-1.4-6.5-1.4h-5.4c-3.5,0-5.9,0.5-7.3,1.4c-1.4,0.9-2.5,2.7-3.3,5.4l-0.8,2.6
		c-0.8,2.7-0.8,4.6,0.1,5.5c0.9,1,3,1.4,6.5,1.4H922.3z"/>
	<path class="st0" d="M952.7,163.8L952.7,163.8H975l0.2-0.5c0.6-2,0.4-3.4-0.5-4.1c-0.9-0.7-3-1.1-6.2-1.1h-6c-3,0-5.3,0.4-6.8,1.3
		C954.3,160.2,953.3,161.7,952.7,163.8 M969.6,154.8c4.5,0,7.5,0.8,8.8,2.3c1.3,1.6,1.4,4.3,0.3,8.2c-0.1,0.5-0.2,0.8-0.3,1.1
		c-0.1,0.2-0.2,0.5-0.2,0.7l-26.3,0l-0.3,1.2c-0.7,2.4-0.5,4,0.4,4.9c1,0.9,3,1.4,6.1,1.4h6.3c2.7,0,4.7-0.3,6.2-0.9
		s2.4-1.6,2.7-2.8l0.1-0.2h4l-0.2,0.6c-0.6,2.1-2,3.8-4.2,4.9c-2.2,1.1-5.1,1.7-8.6,1.7H957c-4.3,0-7.2-0.7-8.7-2.2
		c-1.4-1.5-1.7-3.9-0.7-7.4l1-3.5c1-3.5,2.7-6,5-7.5c2.3-1.5,5.6-2.2,10-2.2L969.6,154.8L969.6,154.8z"/>
	<polygon class="st0" points="1028.9,177.4 1036.9,149.9 1021.6,159.2 1020,156.7 1037.2,145.8 1042,145.8 1032.9,177.4 	"/>
	<path class="st0" d="M1087.1,149.1L1087.1,149.1h-7.5c-2.5,0-4.4,0.1-5.7,0.3c-1.3,0.2-2.4,0.5-3,0.9c-0.7,0.4-1.3,1-1.8,1.8
		c-0.5,0.8-1,2.1-1.5,3.8c-0.5,1.6-0.6,2.7-0.3,3.3c0.2,0.6,0.8,1.1,1.8,1.5c0.5,0.2,1.5,0.3,3,0.4c1.4,0.1,3,0.2,4.8,0.2h7.5
		c2.5,0,4.4-0.1,5.7-0.3c1.3-0.2,2.4-0.5,3-0.9c0.7-0.4,1.3-1,1.8-1.8c0.5-0.8,1-2.1,1.5-3.8c0.4-1.5,0.6-2.6,0.3-3.3
		c-0.2-0.7-0.8-1.1-1.8-1.5c-0.5-0.2-1.5-0.3-2.9-0.4C1090.5,149.2,1088.9,149.1,1087.1,149.1 M1094.5,160.8c-1,1.5-2.1,2.5-3.4,3
		c-1.3,0.6-3.3,0.9-6.1,0.9h-13.5c-4.1,0-6.7-0.7-7.9-2c-1.2-1.3-1.3-3.7-0.3-7.1c0.8-2.6,1.5-4.5,2.4-5.6c0.8-1.1,2-2.1,3.4-2.8
		c1.2-0.6,2.7-1.1,4.4-1.4c1.8-0.3,3.9-0.4,6.5-0.4h9c3.3,0,5.8,0.2,7.3,0.5c1.5,0.3,2.7,0.9,3.6,1.6c0.9,0.7,1.3,1.7,1.5,2.9
		s-0.3,3.3-1.2,6.5l-3.5,12.2c-0.9,3-2.5,5.1-4.9,6.5c-2.4,1.4-5.8,2.1-10,2.1h-9.3c-3.3,0-5.7-0.1-7.3-0.3
		c-1.5-0.2-2.7-0.5-3.5-0.9c-1.1-0.5-1.8-1.3-2.2-2.2s-0.4-2.1,0-3.3l0.8-2.6h4.1c-0.1,0.1-0.1,0.3-0.2,0.4
		c-0.1,0.2-0.1,0.4-0.2,0.6c-0.5,1.9-0.3,3.1,0.7,3.8c1,0.7,3.5,1,7.6,1h10.4c3.1,0,5.3-0.4,6.7-1.3c1.4-0.9,2.5-2.5,3.2-4.9
		L1094.5,160.8z"/>
	<path class="st0" d="M1135.6,162.7L1135.6,162.7h-13.4c-3.2,0-5.4,0.4-6.7,1.2c-1.2,0.8-2.2,2.3-2.8,4.6c-0.7,2.4-0.6,4,0.3,4.8
		c0.9,0.8,3.1,1.1,6.6,1.1h12c3.5,0,6-0.4,7.3-1.1c1.3-0.8,2.3-2.3,3-4.8c0.7-2.3,0.6-3.8-0.2-4.6
		C1140.8,163,1138.8,162.7,1135.6,162.7 M1139.8,148.9L1139.8,148.9h-14c-2.9,0-5,0.4-6.2,1.2c-1.2,0.8-2.1,2.3-2.8,4.5
		c-0.5,1.8-0.4,3,0.4,3.7c0.8,0.7,2.4,1.1,4.9,1.1h15c2.5,0,4.4-0.4,5.6-1.1c1.2-0.7,2.1-2,2.6-3.7c0.6-2.2,0.6-3.7-0.2-4.5
		C1144.5,149.3,1142.7,148.9,1139.8,148.9z M1141.8,145.4c3.8,0,6.3,0.6,7.5,1.9c1.2,1.3,1.4,3.5,0.5,6.6c-0.7,2.3-1.7,4-2.9,5.1
		c-1.3,1.1-3,1.7-5.1,1.8c2.4,0.2,3.9,0.9,4.5,2.1c0.6,1.1,0.5,3.1-0.3,5.9c-1,3.4-2.4,5.7-4.4,7c-2,1.3-5.1,1.9-9.4,1.9h-15.2
		c-4.3,0-7.1-0.6-8.3-1.9c-1.2-1.3-1.3-3.6-0.4-7c0.8-2.8,1.9-4.8,3.2-5.9c1.3-1.1,3.2-1.8,5.7-2.1c-2.1-0.1-3.5-0.7-4.1-1.8
		c-0.6-1.1-0.6-2.8,0-5.1c0.9-3.1,2.3-5.3,4.3-6.6c1.9-1.3,4.8-1.9,8.6-1.9H1141.8z"/>
	<path class="st1" d="M603,67.7c42.5-14.5,134.5-29.6,206.2-61.2C758.5,121.1,708,101.8,583.2,145.3c-44.3,13.5-66.3,100.8-90,150.2
		h-1l35.7-123.1c4.3-14.9,10-29.4,16.2-43.7C558.1,96.5,570.1,78.9,603,67.7"/>
	<path class="st0" d="M593.5,167.5c31.1-10.6,98.3-21.6,150.7-44.7c-37.4,83.9-69,68.3-155.2,97.7c-28.3,9.7-58.3,48.6-79.1,74.7
		h-1.5c17.5-38.6,27.4-57.7,41.8-84.3C562.6,188.2,569.4,175.7,593.5,167.5"/>
	<path class="st2" d="M360.1,103.7L360.1,103.7c-21.3,0-35.1,1.7-51.7,14.5c-12.4,9.5-18.1,21.1-21.9,35.4c-4.9,18.3-4.1,33.1,1,40
		c5.1,6.9,15.7,12.5,35.4,13c18.9,0.5,22.4-0.4,32.6-0.6c7.7-0.1,30.2-1.8,35.2,3.1c3.9,3.7-0.8,15.2-5.6,17.8
		c-6.2,3.4-17.3,3.1-21.3,3.1H258.4c-6.1-13.4-13.8-18.8-28.7-26.9c14.3-3.9,25-33.6,28-45c2.7-10.3,3.8-18.9,3.3-26
		c-0.5-7.1-2.6-12.6-6.3-16.4c-7.4-7.7-15.1-11.6-41.3-11.6c-22.2,0-44.3,0-66.5,0c-9.7,0-19.4,0-29,0c-12.4,0-21.1,0-33.5,0
		c-16.1,54.9-32.3,111.5-48,166.4h19.8c9.3,0,32.2,2.2,40.2-27.7c8.6-32.2,19.5-64.5,28.2-97.4c26.8,0,43.6-0.3,70.4-0.3
		c6.4,0,10.7,1.5,12.8,4.4c2.1,2.9,2.3,7.7,0.6,14.2c-2,7.6-7.9,16.6-16.4,19.6c-4,1.4-9,2.1-13.5,2.1H151l-6,22.2
		c-6.3,23.2,30.5,16.5,45.8,23c19.6,8.4,25.3,19.1,24.2,39.8c47.9,0,97.2,0.2,145.7,0.2c42.9,0,72.8-7,83.3-46.6
		c5.1-19.3,4.4-34.5-1.3-42.4c-8.1-11.6-26.4-12.3-39.9-13.5c-16.4-1.4-38.4,0.5-53.3-0.7c-5.1-0.4-10.3-1.6-12.1-7
		c-1.7-4.9,2.1-11.1,7.5-13.1c6.7-2.4,16.2-2.6,20.4-2.6h84.6c21,0,31.3-1.2,37.3-21.6l5.6-19.3
		C477.7,103.7,430.3,103.7,360.1,103.7 M186.8,295.4c0.4-8.4,0.7-16.7,1-25.1c0.1-4.4,0.3-10.2-1.7-13.4l-0.1-0.2l-0.1-0.2l-0.1-0.2
		c-0.9-1-2.1-1.7-3.3-2.3l-0.8-0.4l-0.3-0.2c-1.1-0.3-2.2-0.5-3.3-0.7l-1.3-0.2c-7.1-1-14.1-1.8-21.1-3.1c-3.3-0.7-6.5-1.5-9.8-2.5
		c-7-2.4-12.4-5.4-18.1-10l-2.3-2.4l-0.4-0.4l-0.1,0.4l-0.8,3c-2.4,8.9-4,19.2-7.9,27.6l-1.7,3.1l-1.8,3c-2.6,3.8-5.4,7.1-8.8,10.4
		l-2.5,2.1l-2.6,2c-10.5,6.8-21.6,9.6-34.6,9.7l-1.6,0l-1.4,0l-1.2,0l-1,0l-0.7,0l-0.6,0H0.5L63.2,78.9h148.7
		c23.3,0.1,49.2,2,68.1,17.3l1.9,1.7l0.2,0.2l0.1-0.1l0.9-0.7l0.9-0.6l0.9-0.6c20.7-13.8,47.6-17.1,73.6-17.2
		c56.3,0,112.8,0.2,169.9,0c-2.3,8-5,16.4-7.5,24.8c-2.2,7.4-4.4,14.8-6.4,21.8c-3.3,11.9-5.8,23-15,33
		c-6.5,7.1-15.1,12.1-25.8,15.2l-3.6,0.8l-2.9,0.5c1.4,2.3,2.6,4.6,3.7,7c8.6,19.6,2,46.1-5.6,64.6c-4.1,9.8-9.2,19.3-15.6,25.5
		c-18,17.3-47.8,23.2-73.5,23.2L186.8,295.4z"/>
	<path class="st1" d="M730,221L730,221c5.4,0,9.6,0.2,12.7,0.7c3,0.5,5.5,1.3,7.4,2.3c3.4,1.9,5.5,4.8,6.2,8.6
		c0.7,3.8,0.1,9.1-1.9,15.8c-2.9,10-6.8,17.1-11.6,21.2c-4.8,4.1-11.5,6.2-20.1,6.2h-45.1l-5.3,18.2h-24.2l21.1-73L730,221L730,221z
		 M723.9,239.2h-35.5l-5.4,18.5h35.5c3.2,0,5.7-0.7,7.4-2.2c1.7-1.5,3.1-4.1,4.2-7.8c0.9-3,0.8-5.1-0.2-6.5
		C729,239.9,727,239.2,723.9,239.2z"/>
	<polygon class="st1" points="857.1,294 821.8,294 789.8,240.9 774.4,294 750.4,294 771.5,221 807.2,221 838.7,274.6 854.2,221 
		878.2,221 	"/>
	<polygon class="st1" points="971.1,238.8 909,238.8 905.8,249.9 964.3,249.9 959.9,265.2 901.3,265.2 898.1,276.4 961.2,276.4 
		956.1,294 868.9,294 890,221 976.3,221 	"/>
	<path class="st1" d="M987.3,221h24.1l-12.5,43.3c-1.4,4.9-1.2,8.3,0.8,9.9c1.9,1.7,7,2.5,15.1,2.5h13.7c6.8,0,11.5-0.9,14.4-2.7
		c2.8-1.8,4.9-5,6.3-9.8l12.5-43.3h24.1l-14.5,50.2c-2.5,8.6-6.8,14.7-12.8,18.3c-6,3.6-15.2,5.4-27.5,5.4h-26.9
		c-14.5,0-23.9-1.7-28.3-5.2c-4.4-3.4-5.4-9.6-2.8-18.5L987.3,221z"/>
	<path class="st1" d="M1082.5,269.8l23.8,0l-0.4,1.3c-0.8,2.7-0.6,4.6,0.6,5.6c1.2,1,4.1,1.4,8.7,1.4h30.3c3,0,5.2-0.5,6.8-1.4
		c1.6-0.9,2.6-2.5,3.3-4.6c0.6-2.2,0.3-3.8-0.8-4.7c-1.2-0.9-4.2-1.6-8.9-1.9l-37.6-0.8c-9.4-0.2-15.3-1.9-17.8-5
		c-2.5-3.1-2.5-8.7-0.2-16.8c1.2-4.2,2.6-7.6,4.3-10.3c1.7-2.7,3.7-5,6.2-6.8c2.9-2,6.3-3.5,10.3-4.3c4-0.9,10.1-1.3,18.5-1.3h36.8
		c9.1,0,15.2,1.5,18.3,4.6c3.1,3.1,3.7,8.1,1.7,15c-0.1,0.5-0.3,0.9-0.5,1.5c-0.2,0.5-0.5,1.4-0.9,2.5h-23.2l0.1-0.3
		c0.7-2.4,0.6-4.2-0.4-5.4c-1-1.2-2.8-1.8-5.4-1.8h-27.8c-4.6,0-7.8,0.4-9.5,1.3c-1.7,0.9-2.9,2.3-3.5,4.5c-0.6,2.1-0.4,3.6,0.7,4.5
		c1.1,0.9,3.4,1.5,6.9,1.8l39.5,0.6c9,0.2,14.8,2.1,17.5,5.6c2.7,3.5,2.8,9.6,0.3,18.1c-1.5,5.1-3.3,9-5.5,11.8
		c-2.2,2.8-5.1,5.2-8.9,7.1c-2.5,1.2-5.6,2.1-9.4,2.7c-3.8,0.5-9.1,0.8-16,0.8h-32.1c-13.2,0-21.6-1.4-25.3-4.1
		c-3.7-2.7-4.4-7.8-2.3-15.3c0.1-0.4,0.4-1.1,0.7-2.1C1081.6,272.4,1082,271.2,1082.5,269.8"/>
	<polygon class="st2" points="1158.9,145.4 1157.8,149.3 1192.5,149.3 1161,177.7 1167.9,177.7 1198.2,149.9 1199.5,145.4 	"/>
</g>
</svg>
