<svg width="115" height="34" viewBox="0 0 115 34" fill="none" xmlns="http://www.w3.org/2000/svg">
<path d="M77.1075 16.3665C77.4237 16.3665 77.6633 16.39 77.8167 16.4253C77.97 16.4605 78.0946 16.5193 78.1712 16.6132C78.2767 16.719 78.3437 16.86 78.3629 17.0362C78.3821 17.2125 78.3629 17.4357 78.2958 17.7177L78.0562 18.7163C77.9892 18.9983 77.9029 19.2333 77.8071 19.3978C77.7017 19.574 77.5771 19.715 77.4142 19.8208C77.2896 19.903 77.1362 19.9735 76.9733 20.0087C76.8008 20.044 76.5517 20.0675 76.2354 20.0675H73.7725L74.6446 16.3665H77.1075ZM77.2704 16.7777H74.9608L74.2804 19.6563H76.59C76.8967 19.6563 77.1267 19.5858 77.28 19.4565C77.4333 19.3273 77.5483 19.0923 77.625 18.7633L77.8837 17.6824C77.97 17.3299 77.9604 17.095 77.8837 16.9657C77.7975 16.8482 77.5962 16.7777 77.2704 16.7777Z" fill="#1D1D1B"/>
<path d="M79.5033 18.4814H81.65L81.6692 18.4226C81.7267 18.1876 81.7075 18.0232 81.6213 17.9409C81.535 17.8587 81.3338 17.8117 81.0271 17.8117H80.4521C80.1646 17.8117 79.9442 17.8587 79.8004 17.9644C79.6663 18.0584 79.5608 18.2346 79.5033 18.4814ZM81.1229 17.424C81.5542 17.424 81.8417 17.5179 81.9663 17.6942C82.0908 17.8822 82.1004 18.1994 81.995 18.6576C81.9854 18.7164 81.9758 18.7516 81.9663 18.7868C81.9567 18.8221 81.9471 18.8456 81.9471 18.8691H79.4267L79.3883 19.0101C79.3213 19.2921 79.3404 19.48 79.4267 19.5858C79.5225 19.6915 79.7142 19.7503 80.0017 19.7503H80.6054C80.8642 19.7503 81.0558 19.715 81.1996 19.6445C81.3338 19.574 81.4296 19.4565 81.4583 19.3156L81.4679 19.2921H81.8513L81.8321 19.3626C81.7746 19.6093 81.6404 19.809 81.4296 19.9383C81.2188 20.0675 80.9408 20.138 80.6054 20.138H79.9154C79.5033 20.138 79.2254 20.0558 79.0817 19.8795C78.9475 19.7033 78.9188 19.4213 79.0146 19.0101L79.1104 18.5989C79.2063 18.1876 79.3692 17.8939 79.5896 17.7177C79.81 17.5414 80.1263 17.4592 80.5479 17.4592L81.1229 17.424Z" fill="#1D1D1B"/>
<path d="M83.9308 18.9161C83.5092 18.9161 83.2504 18.8691 83.1546 18.7633C83.0492 18.6694 83.0396 18.4696 83.1067 18.1759C83.1737 17.8939 83.2887 17.7059 83.4708 17.5884C83.6529 17.4709 83.9212 17.424 84.2854 17.424H84.9371C85.3012 17.424 85.56 17.4709 85.6942 17.5767C85.8379 17.6824 85.8858 17.8352 85.8283 18.0584L85.79 18.2346H85.445L85.4737 18.1289C85.5025 18.0114 85.4642 17.9292 85.3683 17.8822C85.2725 17.8352 85.0521 17.8117 84.7167 17.8117H84.3525C83.9979 17.8117 83.7679 17.8352 83.6625 17.8822C83.5667 17.9292 83.4996 18.0349 83.4612 18.1759C83.4229 18.3286 83.4421 18.4344 83.5187 18.4814C83.5954 18.5284 83.8158 18.5636 84.1704 18.5636H84.8029C85.0808 18.5636 85.2725 18.5754 85.3779 18.6106C85.4833 18.6459 85.5504 18.6929 85.5983 18.7633C85.6367 18.8338 85.6654 18.9043 85.6654 18.9866C85.6654 19.0688 85.6462 19.2216 85.5983 19.433C85.5408 19.6798 85.4258 19.8678 85.2533 19.9618C85.0808 20.0675 84.8029 20.1145 84.41 20.1145H83.4804C83.1737 20.1145 82.9725 20.044 82.8862 19.903C82.7904 19.762 82.7904 19.5153 82.8671 19.1746H83.2025L83.1929 19.2216C83.145 19.4213 83.145 19.5505 83.2025 19.621C83.26 19.6915 83.4037 19.7268 83.6625 19.7268H84.6975C84.8987 19.7268 85.0329 19.7033 85.1 19.6445C85.1671 19.5975 85.2246 19.48 85.2629 19.2921C85.3012 19.1393 85.2917 19.0453 85.2342 18.9866C85.1767 18.9278 85.0617 18.9043 84.8892 18.9043L83.9308 18.9161Z" fill="#1D1D1B"/>
<path d="M88.2529 20.1145H87.6396C87.2467 20.1145 86.9783 20.0205 86.8538 19.8443C86.7292 19.668 86.71 19.3743 86.8058 18.9513L86.9017 18.5401C86.9975 18.1406 87.1508 17.8469 87.3617 17.6824C87.5725 17.5062 87.8792 17.4239 88.2721 17.4239H88.9813C89.1538 17.4239 89.2879 17.4592 89.3933 17.5179C89.4988 17.5767 89.5754 17.6707 89.6233 17.7999L89.9588 16.39H90.3134L89.4413 20.091H89.125L89.2304 19.668C89.125 19.8325 89.01 19.95 88.8663 20.0205C88.7129 20.0792 88.5117 20.1145 88.2529 20.1145ZM88.3392 19.7268C88.6746 19.7268 88.9142 19.668 89.0483 19.5623C89.1825 19.4565 89.2879 19.2333 89.3646 18.9161L89.4413 18.6106C89.5179 18.2934 89.5083 18.0936 89.4221 17.9761C89.3358 17.8704 89.125 17.8117 88.7992 17.8117H88.2817C87.9463 17.8117 87.7163 17.8704 87.5821 17.9761C87.4479 18.0819 87.3425 18.2934 87.2658 18.6106L87.1892 18.9161C87.1125 19.2333 87.1125 19.4565 87.1988 19.5623C87.285 19.6798 87.4863 19.7268 87.8217 19.7268H88.3392Z" fill="#1D1D1B"/>
<path d="M91.2525 18.4814H93.3896L93.4088 18.4226C93.4663 18.1876 93.4471 18.0232 93.3609 17.9409C93.2746 17.8587 93.0734 17.8117 92.7667 17.8117H92.1917C91.9042 17.8117 91.6838 17.8587 91.54 17.9644C91.4059 18.0584 91.31 18.2346 91.2525 18.4814ZM92.8721 17.424C93.3033 17.424 93.5909 17.5179 93.7154 17.6942C93.84 17.8822 93.8496 18.1994 93.7442 18.6576C93.7346 18.7164 93.725 18.7516 93.7154 18.7868C93.7059 18.8103 93.6963 18.8456 93.6963 18.8691H91.1759L91.1471 19.0101C91.08 19.2921 91.0992 19.48 91.1854 19.5858C91.2813 19.6915 91.4729 19.7503 91.77 19.7503H92.3738C92.6325 19.7503 92.8242 19.715 92.9679 19.6445C93.1117 19.574 93.1979 19.4565 93.2267 19.3156L93.2363 19.2921H93.6196L93.6004 19.3626C93.5429 19.6093 93.4088 19.809 93.1979 19.9383C92.9871 20.0675 92.7092 20.138 92.3738 20.138H91.6646C91.2525 20.138 90.9746 20.0558 90.8309 19.8795C90.6967 19.7033 90.6679 19.4213 90.7638 19.0101L90.8596 18.5989C90.9554 18.1876 91.1183 17.8939 91.3388 17.7177C91.5592 17.5414 91.8754 17.4592 92.2971 17.4592L92.8721 17.424Z" fill="#1D1D1B"/>
<path d="M98.555 20.0792L99.3217 16.8482L97.8554 17.9409L97.7021 17.6472L99.3504 16.3665H99.8104L98.9383 20.0792H98.555Z" fill="#1D1D1B"/>
<path d="M104.132 16.7542H103.414C103.174 16.7542 102.992 16.766 102.867 16.7895C102.743 16.813 102.637 16.8482 102.58 16.8952C102.513 16.9422 102.455 17.0127 102.407 17.1067C102.36 17.2007 102.312 17.3534 102.264 17.5532C102.216 17.7412 102.206 17.8704 102.235 17.9409C102.254 18.0114 102.312 18.0701 102.407 18.1171C102.455 18.1406 102.551 18.1524 102.695 18.1641C102.829 18.1759 102.982 18.1876 103.155 18.1876H103.874C104.113 18.1876 104.295 18.1759 104.42 18.1524C104.545 18.1289 104.65 18.0936 104.707 18.0466C104.775 17.9996 104.832 17.9291 104.88 17.8352C104.928 17.7412 104.976 17.5884 105.024 17.3887C105.062 17.2125 105.081 17.0832 105.052 17.001C105.033 16.9187 104.976 16.8717 104.88 16.8247C104.832 16.8012 104.736 16.7895 104.602 16.7777C104.458 16.766 104.305 16.7542 104.132 16.7542ZM104.842 18.1289C104.746 18.3051 104.64 18.4226 104.516 18.4814C104.391 18.5519 104.2 18.5871 103.931 18.5871H102.637C102.245 18.5871 101.995 18.5049 101.88 18.3521C101.765 18.1994 101.756 17.9174 101.852 17.5179C101.928 17.2125 101.995 16.9892 102.082 16.86C102.158 16.7307 102.273 16.6132 102.407 16.531C102.522 16.4605 102.666 16.4018 102.829 16.3665C103.002 16.3313 103.203 16.3195 103.452 16.3195H104.315C104.631 16.3195 104.87 16.343 105.014 16.3783C105.158 16.4135 105.273 16.484 105.359 16.5663C105.445 16.6485 105.484 16.766 105.503 16.907C105.522 17.048 105.474 17.2947 105.388 17.6707L105.052 19.1041C104.966 19.4565 104.813 19.7033 104.583 19.8678C104.353 20.0322 104.027 20.1145 103.625 20.1145H102.733C102.417 20.1145 102.187 20.1027 102.034 20.0792C101.89 20.0557 101.775 20.0205 101.698 19.9735C101.593 19.9148 101.526 19.8208 101.487 19.715C101.449 19.6093 101.449 19.4683 101.487 19.3273L101.564 19.0218H101.957C101.947 19.0336 101.947 19.0571 101.938 19.0688C101.928 19.0923 101.928 19.1158 101.919 19.1393C101.871 19.3625 101.89 19.5035 101.986 19.5858C102.082 19.668 102.321 19.7033 102.714 19.7033H103.711C104.008 19.7033 104.219 19.6563 104.353 19.5505C104.487 19.4448 104.592 19.2568 104.66 18.9748L104.842 18.1289Z" fill="#1D1D1B"/>
<path d="M108.78 18.3521H107.496C107.19 18.3521 106.979 18.3991 106.854 18.4931C106.739 18.5871 106.643 18.7633 106.586 19.0336C106.519 19.3155 106.528 19.5035 106.615 19.5975C106.701 19.6915 106.912 19.7268 107.247 19.7268H108.397C108.732 19.7268 108.972 19.6798 109.097 19.5975C109.221 19.5035 109.317 19.3273 109.384 19.0336C109.451 18.7633 109.442 18.5871 109.365 18.4931C109.279 18.3874 109.087 18.3521 108.78 18.3521ZM109.183 16.7307H107.841C107.563 16.7307 107.362 16.7777 107.247 16.8717C107.132 16.9657 107.046 17.142 106.979 17.4004C106.931 17.6119 106.94 17.7529 107.017 17.8352C107.094 17.9174 107.247 17.9644 107.487 17.9644H108.924C109.164 17.9644 109.346 17.9174 109.461 17.8352C109.576 17.7529 109.662 17.6002 109.71 17.4004C109.767 17.142 109.767 16.9657 109.691 16.8717C109.633 16.7777 109.461 16.7307 109.183 16.7307ZM109.375 16.3195C109.739 16.3195 109.978 16.39 110.093 16.5428C110.208 16.6955 110.227 16.954 110.141 17.3182C110.074 17.5884 109.978 17.7882 109.863 17.9174C109.739 18.0466 109.576 18.1171 109.375 18.1289C109.605 18.1524 109.748 18.2346 109.806 18.3756C109.863 18.5049 109.854 18.7398 109.777 19.0688C109.681 19.4683 109.547 19.7385 109.355 19.8913C109.164 20.044 108.867 20.1145 108.455 20.1145H106.998C106.586 20.1145 106.317 20.044 106.202 19.8913C106.087 19.7385 106.078 19.4683 106.164 19.0688C106.241 18.7398 106.346 18.5049 106.471 18.3756C106.595 18.2464 106.777 18.1641 107.017 18.1289C106.816 18.1171 106.682 18.0466 106.624 17.9174C106.567 17.7882 106.567 17.5884 106.624 17.3182C106.71 16.954 106.845 16.6955 107.036 16.5428C107.218 16.39 107.496 16.3195 107.86 16.3195H109.375Z" fill="#1D1D1B"/>
<path d="M57.7396 7.19046C61.8125 5.48684 70.6292 3.71272 77.5004 0C72.6417 13.4645 67.8021 11.1969 55.8421 16.3078C51.5967 17.8939 49.4883 28.1509 47.2171 33.955H47.1212L50.5425 19.4918C50.9546 17.7412 51.5008 16.0376 52.095 14.3574C53.4367 10.5742 54.5867 8.50636 57.7396 7.19046Z" fill="#1D1D1B"/>
<path d="M56.8292 18.9161C59.8096 17.6707 66.2496 16.3783 71.2712 13.6642C67.6871 23.5218 64.6587 21.6889 56.3979 25.1431C53.6858 26.2828 50.8108 30.8532 48.8175 33.9197H48.6737C50.3508 29.3846 51.2996 27.1405 52.6796 24.0152C53.8679 21.3482 54.5196 19.8795 56.8292 18.9161Z" fill="#1D1D1B"/>
<path fill-rule="evenodd" clip-rule="evenodd" d="M34.4617 11.4201C32.4204 11.4201 31.0979 11.6199 29.5071 13.1238C28.3187 14.2399 27.7725 15.6028 27.4083 17.2829C26.9387 19.433 27.0154 21.1719 27.5042 21.9826C27.9929 22.7933 29.0087 23.4512 30.8967 23.51C32.7079 23.5687 33.0433 23.463 34.0208 23.4395C34.7588 23.4277 36.915 23.228 37.3942 23.8037C37.7679 24.2384 37.3175 25.5896 36.8575 25.8951C36.2633 26.2945 35.1996 26.2593 34.8162 26.2593H24.7154C24.1308 24.6849 23.3929 24.0504 21.965 23.0988C23.3354 22.6405 24.3608 19.1511 24.6483 17.8117C24.9071 16.6015 25.0125 15.5911 24.9646 14.7569C24.9167 13.9227 24.7154 13.2765 24.3608 12.83C23.6517 11.9253 22.9137 11.4671 20.4029 11.4671C18.2754 11.4671 16.1575 11.4671 14.03 11.4671C13.1004 11.4671 12.1708 11.4671 11.2508 11.4671C10.0625 11.4671 9.22875 11.4671 8.04042 11.4671C6.4975 17.9174 4.945 24.5674 3.44042 31.0177H5.33792C6.22917 31.0177 8.42375 31.2761 9.19042 27.7632C10.0146 23.9799 11.0592 20.185 11.8929 16.3195C14.4612 16.3195 16.0712 16.2843 18.6396 16.2843C19.2529 16.2843 19.665 16.4605 19.8662 16.8012C20.0675 17.142 20.0867 17.7059 19.9237 18.4696C19.7321 19.3625 19.1667 20.42 18.3521 20.7724C17.9688 20.9369 17.4896 21.0192 17.0583 21.0192H14.4229L13.8479 23.6275C13.2442 26.3533 16.7708 25.5661 18.2371 26.3298C20.1154 27.3167 20.6617 28.5739 20.5562 31.0059C25.1467 31.0059 29.8713 31.0294 34.5192 31.0294C38.6304 31.0294 41.4958 30.207 42.5021 25.5543C42.9908 23.2867 42.9238 21.5009 42.3775 20.5727C41.6012 19.2098 39.8475 19.1276 38.5537 18.9866C36.9821 18.8221 34.8737 19.0453 33.4458 18.9043C32.9571 18.8573 32.4587 18.7163 32.2862 18.0819C32.1233 17.5062 32.4875 16.7777 33.005 16.5427C33.6471 16.2608 34.5575 16.2373 34.96 16.2373H43.0675C45.08 16.2373 46.0671 16.0963 46.6421 13.6995L47.1787 11.4319C45.7317 11.4201 41.1892 11.4201 34.4617 11.4201ZM17.8538 33.9432C17.8921 32.9563 17.9208 31.9811 17.9496 30.9942C17.9592 30.4772 17.9783 29.7958 17.7867 29.4198L17.7771 29.3963L17.7675 29.3728L17.7579 29.3493C17.6717 29.2318 17.5567 29.1496 17.4417 29.0791L17.365 29.0321L17.3362 29.0086C17.2308 28.9733 17.1254 28.9498 17.02 28.9263L16.8954 28.9028C16.215 28.7853 15.5442 28.6913 14.8733 28.5386C14.5571 28.4564 14.2504 28.3624 13.9342 28.2449C13.2633 27.9629 12.7458 27.6104 12.1996 27.07L11.9792 26.788L11.9408 26.741L11.9312 26.788L11.8546 27.1405C11.6246 28.1861 11.4713 29.3963 11.0975 30.3832L10.9346 30.7474L10.7621 31.0999C10.5129 31.5464 10.2446 31.9341 9.91875 32.3218L9.67917 32.5686L9.43 32.8035C8.42375 33.6025 7.36 33.9315 6.11417 33.9432H5.96083H5.82667H5.71167H5.61583H5.54875H5.49125H0L6.00875 8.50635H20.2592C22.4921 8.5181 24.9742 8.74133 26.7854 10.5389L26.9675 10.7387L26.9867 10.7622L26.9963 10.7504L27.0825 10.6682L27.1687 10.5977L27.255 10.5272C29.2387 8.90582 31.8167 8.5181 34.3083 8.50635C39.7038 8.50635 45.1183 8.52985 50.5904 8.50635C50.37 9.44628 50.1113 10.4332 49.8717 11.4201C49.6608 12.2896 49.45 13.159 49.2583 13.9814C48.9421 15.3796 48.7025 16.6837 47.8208 17.8587C47.1979 18.6928 46.3737 19.2803 45.3483 19.6445L45.0033 19.7385L44.7254 19.7973C44.8596 20.0675 44.9746 20.3377 45.08 20.6197C45.9042 22.9225 45.2717 26.036 44.5433 28.2096C44.1504 29.361 43.6617 30.4772 43.0483 31.2057C41.3233 33.2383 38.4675 33.9314 36.0046 33.9314L17.8538 33.9432Z" fill="#1D1D1B"/>
<path d="M69.9104 25.2018C70.4279 25.2018 70.8304 25.2253 71.1275 25.2841C71.415 25.3428 71.6546 25.4368 71.8367 25.5543C72.1625 25.7776 72.3638 26.1183 72.4308 26.5647C72.4979 27.0112 72.4404 27.6339 72.2488 28.4211C71.9708 29.596 71.5971 30.4302 71.1371 30.9119C70.6771 31.3936 70.035 31.6404 69.2108 31.6404H64.8888L64.3808 33.7787H62.0617L64.0838 25.2018H69.9104ZM69.3258 27.3402H65.9238L65.4063 29.5138H68.8083C69.115 29.5138 69.3546 29.4315 69.5175 29.2553C69.6804 29.0791 69.8146 28.7736 69.92 28.3389C70.0063 27.9864 69.9967 27.7397 69.9008 27.5752C69.8146 27.4224 69.6229 27.3402 69.3258 27.3402Z" fill="#1D1D1B"/>
<path d="M82.0908 33.7787H78.7079L75.6412 27.5399L74.1654 33.7787H71.8654L73.8875 25.2018H77.3088L80.3275 31.4994L81.8129 25.2018H84.1129L82.0908 33.7787Z" fill="#1D1D1B"/>
<path d="M93.0158 27.2932H87.0646L86.7579 28.5973H92.3642L91.9425 30.395H86.3267L86.02 31.7109H92.0671L91.5783 33.7787H83.2217L85.2438 25.2018H93.5142L93.0158 27.2932Z" fill="#1D1D1B"/>
<path d="M94.5683 25.2019H96.8779L95.68 30.2892C95.5458 30.865 95.565 31.2644 95.7567 31.4524C95.9388 31.6521 96.4275 31.7461 97.2038 31.7461H98.5167C99.1683 31.7461 99.6188 31.6404 99.8967 31.4289C100.165 31.2174 100.366 30.8415 100.5 30.2775L101.698 25.1901H104.008L102.618 31.0882C102.379 32.0986 101.967 32.8153 101.392 33.2383C100.817 33.6612 99.935 33.8727 98.7563 33.8727H96.1783C94.7888 33.8727 93.8879 33.673 93.4663 33.2618C93.0446 32.8623 92.9488 32.1339 93.1979 31.0882L94.5683 25.2019Z" fill="#1D1D1B"/>
<path d="M103.692 30.9354H105.973L105.934 31.0882C105.858 31.4054 105.877 31.6286 105.992 31.7461C106.107 31.8636 106.385 31.9106 106.825 31.9106H109.729C110.017 31.9106 110.228 31.8518 110.381 31.7461C110.534 31.6404 110.63 31.4524 110.697 31.2056C110.755 30.9472 110.726 30.7592 110.62 30.6534C110.505 30.5477 110.218 30.4654 109.768 30.4302L106.164 30.3362C105.263 30.3127 104.698 30.113 104.458 29.7488C104.219 29.3845 104.219 28.7266 104.439 27.7749C104.554 27.2814 104.688 26.882 104.851 26.5647C105.014 26.2475 105.206 25.9773 105.445 25.7658C105.723 25.5308 106.049 25.3546 106.432 25.2606C106.816 25.1548 107.4 25.1078 108.205 25.1078H111.732C112.604 25.1078 113.189 25.2841 113.486 25.6483C113.783 26.0125 113.84 26.6 113.649 27.4107C113.639 27.4694 113.62 27.5164 113.601 27.5869C113.582 27.6457 113.553 27.7514 113.515 27.8806H111.291L111.301 27.8454C111.368 27.5634 111.358 27.3519 111.263 27.2109C111.167 27.07 110.994 26.9995 110.745 26.9995H108.081C107.64 26.9995 107.333 27.0465 107.17 27.1522C107.008 27.2579 106.893 27.4224 106.835 27.6809C106.778 27.9276 106.797 28.1039 106.902 28.2096C107.008 28.3154 107.228 28.3859 107.563 28.4211L111.349 28.4916C112.211 28.5151 112.767 28.7383 113.026 29.1495C113.285 29.5608 113.294 30.2775 113.055 31.2761C112.911 31.8753 112.738 32.3336 112.527 32.6625C112.317 32.9915 112.039 33.2735 111.675 33.4967C111.435 33.6377 111.138 33.7435 110.774 33.8139C110.41 33.8727 109.902 33.9079 109.24 33.9079H106.164C104.899 33.9079 104.094 33.7435 103.74 33.4262C103.385 33.109 103.318 32.5098 103.519 31.6286C103.529 31.5816 103.558 31.4994 103.586 31.3819C103.605 31.2409 103.644 31.0999 103.692 30.9354Z" fill="#1D1D1B"/>
<path fill-rule="evenodd" clip-rule="evenodd" d="M111.013 16.3195L110.908 16.7777H114.233L111.215 20.1145H111.876L114.78 16.8482L114.904 16.3195H111.013Z" fill="#1D1D1B"/>
</svg>
