<?xml version="1.0" encoding="UTF-8"?><svg id="Camada_2" xmlns="http://www.w3.org/2000/svg" viewBox="0 0 60.47 55.12"><defs><style>.cls-1{fill:#e30613;}.cls-2{fill:#1d1d1b;}</style></defs><g id="Camada_1-2"><g><path class="cls-1" d="m21.15,11.67c8.1-2.77,25.65-5.65,39.32-11.67-9.68,21.86-19.31,18.18-43.11,26.48C8.92,29.05,4.72,45.7.19,55.12h-.19l6.81-23.49c.82-2.84,1.9-5.61,3.09-8.34,2.68-6.13,4.97-9.48,11.25-11.63"/><path class="cls-2" d="m19.33,30.71c5.92-2.02,18.75-4.13,28.74-8.53-7.12,16-13.15,13.02-29.59,18.64-5.4,1.84-11.11,9.29-15.08,14.25h-.28c3.34-7.36,5.23-11.02,7.97-16.09,2.34-4.32,3.63-6.7,8.22-8.26"/></g></g></svg>